<?xml version="1.0" encoding="iso-8859-1"?>
<!-- Generator: Adobe Illustrator 19.0.0, SVG Export Plug-In . SVG Version: 6.00 Build 0)  -->
<svg version="1.1" id="Capa_1" xmlns="http://www.w3.org/2000/svg" xmlns:xlink="http://www.w3.org/1999/xlink" x="0px" y="0px"
	 viewBox="0 0 512 512" style="enable-background:new 0 0 512 512;" xml:space="preserve">
<g>
	<g>
		<path d="M499.946,236.923l-103.883-44.976l-51.895-67.421c-3.786-4.919-9.642-7.801-15.849-7.801H115.9
			c-7.194,0-13.834,3.863-17.389,10.118l-18.059,31.778c-15.159,26.666-39.229,47.534-67.773,58.762
			C5.029,220.392,0,227.775,0,235.996v99.28c0,11.046,8.954,20,20,20h56.44c8.256,23.278,30.487,40,56.56,40s48.303-16.722,56.56-40
			h112.88c8.256,23.278,30.487,40,56.56,40s48.303-16.722,56.56-40H492c11.046,0,20-8.954,20-20v-80
			C512,247.303,507.264,240.09,499.946,236.923z M133,355.275c-11.028,0-20-8.972-20-20c0-11.028,8.972-20,20-20s20,8.972,20,20
			C153,346.303,144.028,355.275,133,355.275z M359,355.275c-11.028,0-20-8.972-20-20c0-11.028,8.972-20,20-20s20,8.972,20,20
			C379,346.303,370.028,355.275,359,355.275z M472,315.275h-56.427c-8.218-23.253-30.55-40-56.573-40
			c-25.956,0-48.327,16.666-56.573,40H189.573c-8.363-23.597-30.855-40-56.573-40c-25.513,0-48.144,16.217-56.573,40H40v-66.252
			c31.455-15.38,57.852-40.071,75.229-70.637l12.31-21.662h190.938l49.046,63.72c2.069,2.688,4.789,4.807,7.902,6.154L472,268.41
			V315.275z"/>
	</g>
</g>
<g>
</g>
<g>
</g>
<g>
</g>
<g>
</g>
<g>
</g>
<g>
</g>
<g>
</g>
<g>
</g>
<g>
</g>
<g>
</g>
<g>
</g>
<g>
</g>
<g>
</g>
<g>
</g>
<g>
</g>
</svg>
