<svg height="512" viewBox="0 0 64 64" width="512" xmlns="http://www.w3.org/2000/svg"><g id="bank-money-protect-security-protection"><path d="m43 27.9v-3.9h-3.9a5.01 5.01 0 0 0 3.9 3.9z"/><path d="m9 40h3.9a5.01 5.01 0 0 0 -3.9-3.9z"/><path d="m14.92 40h5.11a9.955 9.955 0 0 1 0-16h-5.11a7 7 0 0 1 -5.92 5.92v4.16a7 7 0 0 1 5.92 5.92z"/><circle cx="26" cy="12" r="2"/><path d="m9 24v3.9a5.01 5.01 0 0 0 3.9-3.9z"/><path d="m12 16h2v2h2v-2h2v2h2v-2h2v2h8v-2h2v2h2v-2h2v2h2v-2h2v2h5.81l-19.81-13.78-19.81 13.78h5.81zm14-8a4 4 0 1 1 -4 4 4 4 0 0 1 4-4z"/><path d="m6 20h40v2h-40z"/><path d="m50 34.06-10 3.64v7.99a11.02 11.02 0 0 0 3.6 8.14l6.4 5.82 6.4-5.82a11.02 11.02 0 0 0 3.6-8.14v-7.99zm-.293 16.647a1 1 0 0 1 -1.414 0l-4-4 1.414-1.414 3.293 3.293 6.293-6.293 1.414 1.414z"/><path d="m43 29.92a7 7 0 0 1 -5.92-5.92h-5.11a9.955 9.955 0 0 1 0 16h6.03v-3a.992.992 0 0 1 .66-.94l4.34-1.58z"/><path d="m4 46v2h34.22a12.1 12.1 0 0 1 -.2-2z"/><path d="m6 42h32v2h-32z"/><path d="m26 40a8 8 0 1 0 -8-8 8.011 8.011 0 0 0 8 8zm0-7a2.993 2.993 0 0 1 -1-5.816v-1.184h2v1.184a3 3 0 0 1 2 2.816h-2a1 1 0 1 0 -1 1 2.993 2.993 0 0 1 1 5.816v1.184h-2v-1.184a3 3 0 0 1 -2-2.816h2a1 1 0 1 0 1-1z"/></g></svg>